<svg xmlns="http://www.w3.org/2000/svg" viewBox="0 0 72.88 54.66"><defs><style>.cls-1{fill:#adadad;}.cls-2{fill:#dbdbdb;}.cls-3{fill:#fdc63a;}.cls-4{fill:#fda014;}.cls-5{fill:#fdf3d7;}.cls-6{fill:#0f303f;}.cls-7{fill:#2c5871;}.cls-8{fill:#fff;}</style></defs><title>Asset 34</title><g id="Layer_2" data-name="Layer 2"><g id="Layer_1-2" data-name="Layer 1"><rect width="61.37" height="39.43"/><polygon class="cls-1" points="43.27 52 19.99 52 26.32 43.53 36.94 43.53 43.27 52"/><path class="cls-2" d="M56.87,47.63H4.5A4.31,4.31,0,0,1,0,43.53v-4.1H61.37v4.1A4.31,4.31,0,0,1,56.87,47.63Z"/><rect x="19.13" y="52" width="25" height="2.66"/><rect class="cls-3" x="1.8" y="1.8" width="29.83" height="35.83"/><rect class="cls-4" x="31.63" y="1.8" width="27.93" height="35.83"/><rect class="cls-5" x="3.73" y="4.45" width="25.93" height="10.44"/><rect class="cls-5" x="33.64" y="4.45" width="23.62" height="10.44"/><rect class="cls-5" x="3.73" y="17.19" width="53.52" height="3.94"/><rect class="cls-5" x="3.73" y="23.09" width="53.52" height="3.94"/><rect class="cls-5" x="3.73" y="28.99" width="53.52" height="3.94"/><path class="cls-6" d="M69.67,10.05h-8.8V54.66h8.8a3.21,3.21,0,0,0,3.21-3.21V13.27A3.22,3.22,0,0,0,69.67,10.05Z"/><path class="cls-7" d="M52.08,10.05a3.22,3.22,0,0,0-3.22,3.22V51.45a3.22,3.22,0,0,0,3.22,3.21h8.79V10.05Z"/><rect class="cls-8" x="55.99" y="11.83" width="9.77" height="0.8"/><path class="cls-8" d="M60.87,53.42a2.66,2.66,0,1,1,2.65-2.66A2.66,2.66,0,0,1,60.87,53.42Zm0-4.73A2.08,2.08,0,1,0,63,50.76,2.07,2.07,0,0,0,60.87,48.69Z"/><rect class="cls-3" x="50.03" y="14.89" width="10.96" height="31.62"/><rect class="cls-4" x="60.99" y="14.89" width="10.73" height="31.62"/><rect class="cls-5" x="51.86" y="16.8" width="17.88" height="5.63"/><rect class="cls-5" x="51.86" y="23.37" width="17.88" height="5.63"/><rect class="cls-5" x="51.86" y="29.94" width="17.88" height="5.63"/><rect class="cls-5" x="51.86" y="36.5" width="17.88" height="5.63"/></g></g></svg>