<svg xmlns="http://www.w3.org/2000/svg" viewBox="0 0 66.5 44.82"><defs><style>.cls-1{fill:#0f303f;}.cls-2{fill:#2c5871;}.cls-3{fill:#fdc63a;}.cls-4{fill:#c1d64b;}.cls-5{fill:#fd692b;}.cls-6{fill:#16c1d1;}.cls-7{fill:#14b0bf;}.cls-8{fill:#fff;}</style></defs><title>Asset 36</title><g id="Layer_2" data-name="Layer 2"><g id="Layer_1-2" data-name="Layer 1"><path class="cls-1" d="M0,0V44.82H66.5V0ZM63.5,41.73H3V3.09H63.5Z"/><rect class="cls-2" x="3" y="3.09" width="60.5" height="6.3"/><rect class="cls-3" x="49.99" y="4.85" width="2.78" height="2.78"/><rect class="cls-4" x="54.11" y="4.85" width="2.78" height="2.78"/><rect class="cls-5" x="58.22" y="4.85" width="2.78" height="2.78"/><rect class="cls-6" x="3" y="9.39" width="30.25" height="32.34"/><rect class="cls-7" x="33.25" y="9.39" width="30.25" height="32.34"/><path class="cls-8" d="M19.58,26.39v.07l7.06,2.48v3.33L16.1,27.78V25l10.54-4.47v3.32Z"/><path class="cls-8" d="M31.5,34.64H28l6.53-19.33H38Z"/><path class="cls-8" d="M46.9,26.52v-.07l-7.16-2.52V20.64L50.4,25.11v2.78L39.74,32.38v-3.3Z"/></g></g></svg>