<svg xmlns="http://www.w3.org/2000/svg" viewBox="0 0 68.07 56.34"><defs><style>.cls-1{fill:#0f303f;}.cls-2{fill:#2c5871;}.cls-3{fill:#fff;}.cls-4{fill:#16c1d1;}.cls-5{fill:#129dab;}.cls-6{fill:#fdc63a;}.cls-7{fill:#fda014;}.cls-8{fill:#9fb603;}</style></defs><title>Asset 35</title><g id="Layer_2" data-name="Layer 2"><g id="Layer_1-2" data-name="Layer 1"><path class="cls-1" d="M64.85,11.72H56.06V56.34h8.79a3.22,3.22,0,0,0,3.22-3.22V14.94A3.22,3.22,0,0,0,64.85,11.72Z"/><path class="cls-2" d="M47.26,11.72A3.22,3.22,0,0,0,44,14.94V53.12a3.22,3.22,0,0,0,3.22,3.22h8.8V11.72Z"/><rect class="cls-3" x="51.17" y="13.51" width="9.77" height="0.8"/><path class="cls-3" d="M56.06,55.09a2.66,2.66,0,1,1,2.65-2.65A2.66,2.66,0,0,1,56.06,55.09Zm0-4.73a2.08,2.08,0,1,0,2.07,2.08A2.08,2.08,0,0,0,56.06,50.36Z"/><rect class="cls-4" x="45.21" y="16.56" width="10.96" height="31.62"/><rect class="cls-5" x="56.17" y="16.56" width="10.73" height="31.62"/><path class="cls-2" d="M4.33,0A4.33,4.33,0,0,0,0,4.33V52a4.33,4.33,0,0,0,4.33,4.33h17V0Z"/><path class="cls-1" d="M38.39,0h-17V56.29h17A4.33,4.33,0,0,0,42.72,52V4.33A4.33,4.33,0,0,0,38.39,0Z"/><path class="cls-3" d="M23.75,53a2.39,2.39,0,1,1-2.39-2.39A2.39,2.39,0,0,1,23.75,53Z"/><path class="cls-3" d="M33.22,2.28a.83.83,0,0,1-1.65,0,.83.83,0,0,1,1.65,0Z"/><rect class="cls-6" x="1.89" y="4.66" width="19.38" height="44.43"/><rect class="cls-7" x="21.27" y="4.66" width="19.57" height="44.43"/><rect class="cls-3" x="7.34" y="23.24" width="53.6" height="16.39" rx="4"/><rect class="cls-8" x="8.34" y="24.24" width="51.6" height="14.39" rx="3"/><path class="cls-3" d="M19.59,32.84H18l-.34,1.08H16.57l1.69-5h1l1.69,5H19.93Zm-1.38-.79h1.13l-.55-1.76h0Z"/><path class="cls-3" d="M22.46,32.1v1.82h-1v-5h1.92a2,2,0,0,1,1.36.44,1.6,1.6,0,0,1,0,2.32,2,2,0,0,1-1.36.43Zm0-.77h.91A.86.86,0,0,0,24,31.1a.83.83,0,0,0,.21-.58.88.88,0,0,0-.21-.6.82.82,0,0,0-.64-.24h-.91Z"/><path class="cls-3" d="M26.94,32.1v1.82h-1v-5h1.92a2,2,0,0,1,1.36.44,1.6,1.6,0,0,1,0,2.32,2,2,0,0,1-1.36.43Zm0-.77h.92a.82.82,0,0,0,.63-.23.79.79,0,0,0,.22-.58.88.88,0,0,0-.21-.6.83.83,0,0,0-.64-.24h-.92Z"/><path class="cls-3" d="M31.44,31.92v2h-1v-5h1.75a2.08,2.08,0,0,1,1.34.39A1.3,1.3,0,0,1,34,30.39a1.09,1.09,0,0,1-.21.67,1.44,1.44,0,0,1-.6.45,1.06,1.06,0,0,1,.64.44,1.35,1.35,0,0,1,.2.75v.37a1.72,1.72,0,0,0,.06.44.57.57,0,0,0,.19.34v.07h-1a.51.51,0,0,1-.17-.36,2.89,2.89,0,0,1,0-.5v-.35a.78.78,0,0,0-.21-.58.76.76,0,0,0-.58-.21Zm0-.78h.72a1,1,0,0,0,.63-.18.65.65,0,0,0,.21-.53.7.7,0,0,0-.21-.54.82.82,0,0,0-.61-.21h-.74Z"/><path class="cls-3" d="M38.93,31.87a2.13,2.13,0,0,1-.58,1.52,2,2,0,0,1-1.52.6,2,2,0,0,1-1.51-.6,2.13,2.13,0,0,1-.58-1.52V31a2.13,2.13,0,0,1,.58-1.52,2,2,0,0,1,1.5-.6,2,2,0,0,1,1.52.6A2.1,2.1,0,0,1,38.93,31Zm-1-.91a1.49,1.49,0,0,0-.3-1,1,1,0,0,0-.81-.38A.94.94,0,0,0,36,30a1.54,1.54,0,0,0-.28,1v.91a1.57,1.57,0,0,0,.28,1,1,1,0,0,0,.8.37,1,1,0,0,0,.81-.37,1.57,1.57,0,0,0,.29-1Z"/><path class="cls-3" d="M41.28,32.56l.06.28h0l.06-.27,1.09-3.66h1.06l-1.7,5h-1l-1.7-5h1.06Z"/><path class="cls-3" d="M46.92,31.72H45.05v1.43h2.22v.77H44.05v-5h3.21v.77H45.05v1.26h1.87Z"/><path class="cls-3" d="M48,33.92v-5h1.75a2,2,0,0,1,1.51.59,2,2,0,0,1,.6,1.5v.83a2,2,0,0,1-.6,1.51,2.07,2.07,0,0,1-1.51.58Zm1-4.24v3.47h.74a1,1,0,0,0,.8-.37,1.46,1.46,0,0,0,.3-1V31a1.46,1.46,0,0,0-.3-.95,1,1,0,0,0-.8-.37Z"/></g></g></svg>